<svg width="150" height="95" viewBox="0 0 150 95" fill="none" xmlns="http://www.w3.org/2000/svg">
<path d="M7.26 94.5V89.08L0.64 80.1H2.5L8.08 87.14L13.6 80.1H15.5L8.88 89.08V94.5H7.26ZM17.2333 94.5V80.1H19.4533L25.4333 87.22L31.4133 80.1H33.6333V94.5H32.0133V81.94L25.4333 89.76L18.8533 81.94V94.5H17.2333ZM35.828 94.5V82.5C35.828 82.06 35.9346 81.66 36.148 81.3C36.3613 80.9267 36.648 80.6333 37.008 80.42C37.3813 80.2067 37.788 80.1 38.228 80.1H47.828C48.268 80.1 48.668 80.2067 49.028 80.42C49.4013 80.6333 49.6946 80.9267 49.908 81.3C50.1213 81.66 50.228 82.06 50.228 82.5V94.5H48.608V89.24H37.448V94.5H35.828ZM37.448 87.62H48.608V82.5C48.608 82.2867 48.528 82.1067 48.368 81.96C48.2213 81.8 48.0413 81.72 47.828 81.72H38.228C38.0146 81.72 37.828 81.8 37.668 81.96C37.5213 82.1067 37.448 82.2867 37.448 82.5V87.62ZM54.8067 94.5C54.3667 94.5 53.9601 94.3933 53.5867 94.18C53.2267 93.9667 52.9401 93.68 52.7267 93.32C52.5134 92.9467 52.4067 92.54 52.4067 92.1V91.54H54.0267V92.1C54.0267 92.3133 54.1001 92.5 54.2467 92.66C54.4067 92.8067 54.5934 92.88 54.8067 92.88H64.4067C64.6201 92.88 64.8001 92.8067 64.9467 92.66C65.1067 92.5 65.1867 92.3133 65.1867 92.1V88.88C65.1867 88.6667 65.1067 88.4867 64.9467 88.34C64.8001 88.1933 64.6201 88.12 64.4067 88.12H54.8067C54.3667 88.12 53.9601 88.0133 53.5867 87.8C53.2267 87.5733 52.9401 87.28 52.7267 86.92C52.5134 86.56 52.4067 86.16 52.4067 85.72V82.5C52.4067 82.06 52.5134 81.66 52.7267 81.3C52.9401 80.9267 53.2267 80.6333 53.5867 80.42C53.9601 80.2067 54.3667 80.1 54.8067 80.1H64.4067C64.8467 80.1 65.2467 80.2067 65.6067 80.42C65.9801 80.6333 66.2734 80.9267 66.4867 81.3C66.7001 81.66 66.8067 82.06 66.8067 82.5V83.06H65.1867V82.5C65.1867 82.2867 65.1067 82.1067 64.9467 81.96C64.8001 81.8 64.6201 81.72 64.4067 81.72H54.8067C54.5934 81.72 54.4067 81.8 54.2467 81.96C54.1001 82.1067 54.0267 82.2867 54.0267 82.5V85.72C54.0267 85.9333 54.1001 86.1133 54.2467 86.26C54.4067 86.4067 54.5934 86.48 54.8067 86.48H64.4067C64.8467 86.48 65.2467 86.5933 65.6067 86.82C65.9801 87.0333 66.2734 87.32 66.4867 87.68C66.7001 88.04 66.8067 88.44 66.8067 88.88V92.1C66.8067 92.54 66.7001 92.9467 66.4867 93.32C66.2734 93.68 65.9801 93.9667 65.6067 94.18C65.2467 94.3933 64.8467 94.5 64.4067 94.5H54.8067Z" fill="white"/>
<path d="M74.632 94.5V81.72H68.232V80.1H82.632V81.72H76.252V94.5H74.632ZM84.1678 94.5V80.1H97.3078V81.72H85.7878V86.48H95.0478V88.12H85.7878V92.88H97.3078V94.5H84.1678ZM101.84 94.5C101.4 94.5 100.994 94.3933 100.62 94.18C100.26 93.9667 99.9736 93.68 99.7603 93.32C99.547 92.9467 99.4403 92.54 99.4403 92.1V82.5C99.4403 82.06 99.547 81.66 99.7603 81.3C99.9736 80.9267 100.26 80.6333 100.62 80.42C100.994 80.2067 101.4 80.1 101.84 80.1H113.8V81.72H101.84C101.627 81.72 101.44 81.8 101.28 81.96C101.134 82.1067 101.06 82.2867 101.06 82.5V92.1C101.06 92.3133 101.134 92.5 101.28 92.66C101.44 92.8067 101.627 92.88 101.84 92.88H113.8V94.5H101.84ZM115.906 94.5V80.1H117.526V86.48H129.026V80.1H130.666V94.5H129.026V88.12H117.526V94.5H115.906Z" fill="#A0A0A0"/>
<path d="M51.3784 22.5L68 41.5H38L51.3784 22.5Z" fill="#E02020"/>
<path d="M83.52 19.854L60 68L74 66.0146L94.72 22.8321L102 25.3139V0L74 15.3869L83.52 19.854Z" fill="#E02020"/>
<path d="M71.1446 36.5L64.9759 29.8659L43 6.23171L53.0241 2.5L75 26.1341L71.1446 36.5Z" fill="#E02020"/>
</svg>
