<svg width="696" height="450" viewBox="0 0 696 450" fill="none" xmlns="http://www.w3.org/2000/svg">
<path d="M23.232 440V422.656L2.048 393.92H8L25.856 416.448L43.52 393.92H49.6L28.416 422.656V440H23.232ZM55.1465 440V393.92H62.2505L81.3865 416.704L100.523 393.92H107.627V440H102.443V399.808L81.3865 424.832L60.3305 399.808V440H55.1465ZM114.65 440V401.6C114.65 400.192 114.991 398.912 115.674 397.76C116.356 396.565 117.274 395.627 118.426 394.944C119.62 394.261 120.922 393.92 122.33 393.92H153.05C154.458 393.92 155.738 394.261 156.89 394.944C158.084 395.627 159.023 396.565 159.706 397.76C160.388 398.912 160.73 400.192 160.73 401.6V440H155.546V423.168H119.834V440H114.65ZM119.834 417.984H155.546V401.6C155.546 400.917 155.29 400.341 154.778 399.872C154.308 399.36 153.732 399.104 153.05 399.104H122.33C121.647 399.104 121.05 399.36 120.538 399.872C120.068 400.341 119.834 400.917 119.834 401.6V417.984ZM175.382 440C173.974 440 172.672 439.659 171.478 438.976C170.326 438.293 169.408 437.376 168.726 436.224C168.043 435.029 167.702 433.728 167.702 432.32V430.528H172.885V432.32C172.885 433.003 173.12 433.6 173.59 434.112C174.102 434.581 174.699 434.816 175.382 434.816H206.102C206.784 434.816 207.36 434.581 207.83 434.112C208.342 433.6 208.598 433.003 208.598 432.32V422.016C208.598 421.333 208.342 420.757 207.83 420.288C207.36 419.819 206.784 419.584 206.102 419.584H175.382C173.974 419.584 172.672 419.243 171.478 418.56C170.326 417.835 169.408 416.896 168.726 415.744C168.043 414.592 167.702 413.312 167.702 411.904V401.6C167.702 400.192 168.043 398.912 168.726 397.76C169.408 396.565 170.326 395.627 171.478 394.944C172.672 394.261 173.974 393.92 175.382 393.92H206.102C207.51 393.92 208.79 394.261 209.942 394.944C211.136 395.627 212.075 396.565 212.758 397.76C213.44 398.912 213.782 400.192 213.782 401.6V403.392H208.598V401.6C208.598 400.917 208.342 400.341 207.83 399.872C207.36 399.36 206.784 399.104 206.102 399.104H175.382C174.699 399.104 174.102 399.36 173.59 399.872C173.12 400.341 172.885 400.917 172.885 401.6V411.904C172.885 412.587 173.12 413.163 173.59 413.632C174.102 414.101 174.699 414.336 175.382 414.336H206.102C207.51 414.336 208.79 414.699 209.942 415.424C211.136 416.107 212.075 417.024 212.758 418.176C213.44 419.328 213.782 420.608 213.782 422.016V432.32C213.782 433.728 213.44 435.029 212.758 436.224C212.075 437.376 211.136 438.293 209.942 438.976C208.79 439.659 207.51 440 206.102 440H175.382Z" fill="white"/>
<path d="M238.823 440V399.104H218.343V393.92H264.423V399.104H244.007V440H238.823ZM269.337 440V393.92H311.385V399.104H274.521V414.336H304.153V419.584H274.521V434.816H311.385V440H269.337ZM325.889 440C324.481 440 323.18 439.659 321.985 438.976C320.833 438.293 319.916 437.376 319.233 436.224C318.55 435.029 318.209 433.728 318.209 432.32V401.6C318.209 400.192 318.55 398.912 319.233 397.76C319.916 396.565 320.833 395.627 321.985 394.944C323.18 394.261 324.481 393.92 325.889 393.92H364.161V399.104H325.889C325.206 399.104 324.609 399.36 324.097 399.872C323.628 400.341 323.393 400.917 323.393 401.6V432.32C323.393 433.003 323.628 433.6 324.097 434.112C324.609 434.581 325.206 434.816 325.889 434.816H364.161V440H325.889ZM370.898 440V393.92H376.082V414.336H412.882V393.92H418.13V440H412.882V419.584H376.082V440H370.898Z" fill="#A0A0A0"/>
<path d="M142.943 119.794L220.067 220.954H80.8671L142.943 119.794Z" fill="#E02020"/>
<path d="M292.08 105.706L182.947 362.045L247.907 351.474L344.048 121.562L377.827 134.776V0L247.907 81.9225L292.08 105.706Z" fill="#E02020"/>
<path d="M234.658 194.333L206.035 159.011L104.067 33.1788L150.579 13.3105L252.547 139.143L234.658 194.333Z" fill="#E02020"/>
</svg>
